<svg width="108" height="40" viewBox="0 0 108 40" fill="none" xmlns="http://www.w3.org/2000/svg">
<g clip-path="url(#clip0_89_2160)">
<path d="M102.596 32.9756C102.254 32.8749 101.931 32.723 101.634 32.5282C101.31 32.3091 101.019 32.0444 100.772 31.7421C100.487 31.394 100.236 31.0191 100.024 30.6227L99.7966 30.2075L101.543 29.1581L101.791 29.6122C102.011 30.0543 102.315 30.4507 102.687 30.7759C102.928 30.9829 103.234 31.0984 103.551 31.1051C103.685 31.1051 103.818 31.0904 103.949 31.0595C104.079 31.0272 104.204 30.9788 104.322 30.9157C104.434 30.8579 104.537 30.7853 104.629 30.7007C104.711 30.6241 104.782 30.5354 104.838 30.4373C104.896 30.3405 104.942 30.2357 104.973 30.1269C105.001 30.0221 105.016 29.9132 105.014 29.8044C105.005 29.5289 104.91 29.2642 104.742 29.0465C104.552 28.7912 104.339 28.556 104.102 28.3424C103.761 28.0293 103.403 27.735 103.031 27.4595C102.586 27.1236 102.218 26.828 101.928 26.574C101.687 26.3751 101.47 26.1521 101.276 25.9089C101.068 25.6347 100.904 25.3284 100.788 25.0032C100.675 24.6807 100.619 24.3421 100.619 24.0007C100.614 23.4713 100.752 22.9513 101.018 22.4944C101.15 22.2673 101.314 22.059 101.505 21.879C101.697 21.6962 101.912 21.5403 102.144 21.4154C102.379 21.2864 102.629 21.1883 102.889 21.1238C103.149 21.0593 103.418 21.0257 103.687 21.027C103.976 21.027 104.262 21.0633 104.541 21.1372C104.82 21.2111 105.086 21.3213 105.336 21.4637C105.619 21.629 105.88 21.8319 106.111 22.0644C106.388 22.3426 106.643 22.6422 106.874 22.9607L107.162 23.3504L105.518 24.6041L105.221 24.2104C105.063 23.9967 104.891 23.7938 104.707 23.6016C104.598 23.4847 104.474 23.3813 104.338 23.2939C104.24 23.2335 104.133 23.1878 104.021 23.1569C103.907 23.1273 103.789 23.1125 103.671 23.1125C103.53 23.1098 103.388 23.1327 103.255 23.1784C103.145 23.2187 103.044 23.2818 102.958 23.3625C102.876 23.4391 102.811 23.5318 102.765 23.6339C102.722 23.7387 102.7 23.8502 102.703 23.9631C102.703 24.041 102.711 24.119 102.729 24.1956C102.746 24.2775 102.772 24.3568 102.807 24.4321C102.847 24.5181 102.895 24.5987 102.953 24.6726C103.039 24.7841 103.133 24.889 103.234 24.987C103.293 25.0435 103.429 25.1523 103.637 25.3109C103.853 25.4775 104.158 25.706 104.552 25.9935C104.975 26.2999 105.38 26.6331 105.762 26.9906C106.064 27.2701 106.334 27.5845 106.564 27.9258C106.749 28.2094 106.898 28.5144 107.004 28.8355C107.105 29.1419 107.158 29.4617 107.158 29.7842C107.16 30.2223 107.072 30.655 106.896 31.0568C106.714 31.4639 106.455 31.8308 106.132 32.1385C105.807 32.4583 105.422 32.7096 104.998 32.8802C104.571 33.0482 104.117 33.1329 103.659 33.1288C103.297 33.1315 102.937 33.0805 102.59 32.9783L102.596 32.9756ZM91.5137 32.6867C90.4038 32.2433 89.4538 31.4747 88.7873 30.4816C88.1221 29.4886 87.7714 28.3182 87.7835 27.1223C87.7835 26.5848 87.8507 26.05 87.9851 25.5299C88.1208 25.0139 88.3223 24.5181 88.5871 24.0545C88.8464 23.5936 89.1649 23.169 89.5358 22.7914C89.9053 22.4165 90.3245 22.094 90.7801 21.8319C91.2329 21.5686 91.718 21.3656 92.2233 21.2286C92.7312 21.0942 93.2552 21.0257 93.7807 21.027C94.5977 21.019 95.4079 21.1681 96.1685 21.4651C97.656 22.0738 98.8439 23.2456 99.4714 24.725C99.7711 25.4708 99.9216 26.2676 99.9149 27.0712C99.9297 27.868 99.7818 28.6609 99.4795 29.3986C99.1772 30.1363 98.727 30.8055 98.1559 31.3618C97.5982 31.9275 96.9331 32.3777 96.1994 32.6827C95.4577 32.9824 94.6648 33.1329 93.8653 33.1261C93.0604 33.1342 92.2622 32.985 91.5137 32.6881V32.6867ZM89.9953 26.0258C89.9066 26.3832 89.8623 26.75 89.865 27.1182C89.8583 27.649 89.9563 28.1758 90.1525 28.6689C90.3541 29.15 90.6511 29.5867 91.0246 29.9509C91.3874 30.3258 91.8242 30.6201 92.3066 30.8189C92.789 31.0178 93.3063 31.1145 93.829 31.1051C94.1878 31.1065 94.5452 31.0635 94.8919 30.9735C95.2332 30.8848 95.5598 30.7504 95.8662 30.5744C96.1698 30.4037 96.4493 30.1927 96.6966 29.9468C96.9412 29.7036 97.1494 29.4268 97.3187 29.1258C97.4907 28.8208 97.6224 28.4942 97.7084 28.1543C97.7971 27.7995 97.8415 27.434 97.8401 27.0672C97.8428 26.7044 97.7998 26.3429 97.7111 25.9895C97.6251 25.6549 97.4934 25.3337 97.3214 25.0341C97.1508 24.7371 96.9412 24.4657 96.6966 24.2265C96.186 23.7293 95.5571 23.3692 94.8691 23.1797C94.5305 23.0883 94.1824 23.0426 93.8317 23.044C93.4904 23.0426 93.1491 23.0883 92.8199 23.1784C92.1413 23.3705 91.5232 23.732 91.0206 24.2265C90.7747 24.4737 90.5637 24.7532 90.3931 25.0569C90.2197 25.362 90.0867 25.6871 89.9993 26.0271L89.9953 26.0258ZM68.9011 32.9756C68.5598 32.8749 68.236 32.7244 67.939 32.5282C67.6138 32.3091 67.3236 32.0444 67.075 31.7421C66.7901 31.394 66.5402 31.0191 66.3279 30.6227L66.1008 30.2075L67.849 29.1581L68.0962 29.6122C68.3166 30.0543 68.6203 30.4507 68.9925 30.7759C69.233 30.9829 69.5394 31.0984 69.8565 31.1051C69.9909 31.1051 70.1239 31.0904 70.2543 31.0595C70.3846 31.0272 70.5096 30.9788 70.6278 30.9157C70.7394 30.8579 70.8415 30.7853 70.9342 30.7007C71.0162 30.6241 71.0874 30.5354 71.1452 30.4373C71.203 30.3405 71.2487 30.2357 71.2796 30.1269C71.3078 30.0221 71.3212 29.9132 71.3212 29.8044C71.3132 29.5303 71.2191 29.2642 71.0525 29.0465C70.863 28.7912 70.6494 28.5547 70.4128 28.3424C70.0715 28.0293 69.7154 27.735 69.3432 27.4595C68.8984 27.1236 68.5303 26.828 68.24 26.574C67.9995 26.3751 67.7818 26.1521 67.5883 25.9089C67.38 25.6347 67.2147 25.3284 67.1005 25.0032C66.9876 24.6807 66.9298 24.3421 66.9298 24.0007C66.9245 23.4713 67.0629 22.9513 67.3289 22.4944C67.462 22.266 67.6246 22.0577 67.8154 21.8749C68.0075 21.6922 68.2225 21.5363 68.455 21.4113C68.6902 21.2823 68.9401 21.1842 69.2008 21.1197C69.4615 21.0552 69.7302 21.0216 69.999 21.023C70.2879 21.023 70.5741 21.0593 70.8536 21.1332C71.1318 21.2071 71.3978 21.3173 71.6478 21.4597C71.9313 21.625 72.192 21.8266 72.4231 22.0604C72.6999 22.3385 72.9552 22.6382 73.1863 22.9566L73.4739 23.3463L71.8292 24.6027L71.5322 24.209C71.3723 23.994 71.2003 23.7884 71.0162 23.5949C70.9073 23.478 70.7837 23.3745 70.648 23.2886C70.5486 23.2281 70.4424 23.1824 70.3309 23.1515C70.2167 23.1219 70.0998 23.1071 69.9815 23.1071C69.8404 23.1045 69.6993 23.1273 69.5663 23.173C69.4561 23.2133 69.3553 23.2751 69.2693 23.3571C69.186 23.4323 69.1202 23.525 69.0758 23.6285C69.0315 23.732 69.0113 23.8449 69.014 23.9564C69.014 24.0343 69.0221 24.1123 69.0382 24.1889C69.0557 24.2708 69.0825 24.3501 69.1161 24.4254C69.1564 24.5114 69.2048 24.592 69.2626 24.6659C69.3486 24.7774 69.4413 24.8822 69.5421 24.9803C69.6012 25.0368 69.7369 25.1456 69.9439 25.3042C70.1602 25.4708 70.4653 25.6992 70.8576 25.9868C71.2809 26.2945 71.684 26.6278 72.0657 26.9839C72.3667 27.2647 72.6341 27.5778 72.8638 27.9205C73.0506 28.2026 73.1984 28.509 73.3046 28.8302C73.4054 29.1365 73.4564 29.4564 73.4578 29.7789C73.4605 30.2169 73.3718 30.6496 73.1971 31.0514C72.8195 31.8778 72.1409 32.5295 71.2997 32.8735C70.8724 33.0415 70.4182 33.1261 69.96 33.1221C69.6012 33.1248 69.2438 33.0764 68.8998 32.9756H68.9011ZM57.8152 32.6867C56.7053 32.2433 55.7539 31.4747 55.0887 30.4816C54.4236 29.4886 54.0728 28.3169 54.0849 27.1223C54.0849 26.5848 54.1521 26.05 54.2865 25.5299C54.4222 25.0139 54.6238 24.5181 54.8885 24.0545C55.1479 23.5936 55.4663 23.169 55.8372 22.7914C56.2067 22.4165 56.626 22.094 57.0815 21.8319C57.9912 21.2998 59.0286 21.023 60.0821 21.027C60.8991 21.019 61.7094 21.1681 62.4699 21.4651C63.9575 22.0738 65.144 23.2456 65.7729 24.725C66.0739 25.4708 66.2244 26.2676 66.2163 27.0712C66.2311 27.868 66.0833 28.6609 65.7809 29.3986C65.4786 30.1363 65.0284 30.8041 64.4574 31.3618C63.8997 31.9275 63.2345 32.3777 62.5009 32.6827C61.7591 32.9824 60.9663 33.1329 60.1668 33.1261C59.3619 33.1342 58.565 32.985 57.8165 32.6881H57.8139L57.8152 32.6867ZM56.3008 26.0271C56.2108 26.3846 56.1664 26.7514 56.1691 27.1196C56.1624 27.6504 56.2605 28.1771 56.458 28.6703C56.6582 29.1513 56.9552 29.588 57.3288 29.9522C57.6916 30.3271 58.1283 30.6214 58.6107 30.8203C59.0931 31.0191 59.6104 31.1159 60.1332 31.1065C60.4919 31.1078 60.8494 31.0648 61.1961 30.9748C61.5374 30.8861 61.8639 30.7517 62.1689 30.5757C62.4726 30.405 62.7521 30.1941 62.9994 29.9482C63.2426 29.705 63.4522 29.4281 63.6202 29.1285C63.7922 28.8235 63.9239 28.4969 64.0099 28.157C64.1846 27.4461 64.1859 26.7044 64.0126 25.9935C63.9266 25.6589 63.7949 25.3378 63.6215 25.0381C63.4509 24.7411 63.2413 24.4697 62.9967 24.2305C62.4861 23.732 61.8572 23.3719 61.1692 23.1837C60.8306 23.0924 60.4825 23.0467 60.1318 23.048C59.7905 23.0467 59.4492 23.0924 59.12 23.1824C58.4414 23.3745 57.8233 23.7347 57.3207 24.2292C57.0748 24.4764 56.8638 24.7559 56.6932 25.0596C56.5198 25.3646 56.3868 25.6912 56.2994 26.0298L56.3008 26.0271ZM85.2331 32.8614L84.3341 26.4423L81.1588 32.8614H80.2692L77.0684 26.4007L76.2098 32.8614H74.17L75.7744 21.2891H76.7285L80.7275 29.3502L84.6996 21.2891H85.5932L87.2594 32.8614H85.2331ZM52.9213 32.8614L48.12 27.7632L48.1133 27.7552L46.9792 26.5041L48.1389 25.3969H48.1429L52.5289 21.2917H55.4018L49.746 26.5552L55.6894 32.8601H52.9213V32.8614ZM49.5605 32.8614L45.614 28.6689V32.8614H43.5486V21.2891H45.6126V24.6162L49.1695 21.2891H52.0424L46.3866 26.5525L52.3287 32.8614H49.5605ZM35.6608 32.8614V21.2891H42.7074V23.3101H37.7114V25.6361H42.6644V27.6571H37.7114V30.8391H42.6644V32.8601H35.6621L35.6608 32.8614ZM27.214 32.8614V21.2891H29.794C30.1904 21.2864 30.5868 21.3119 30.9792 21.3683C31.3057 21.4127 31.6242 21.5 31.9279 21.6277C32.4586 21.8575 32.9061 22.2431 33.2125 22.7322C33.3684 22.9741 33.4879 23.2375 33.5686 23.513C33.6479 23.7911 33.6882 24.08 33.6868 24.3689C33.6868 24.6404 33.6532 24.9091 33.5834 25.1711C33.5135 25.4291 33.41 25.675 33.2729 25.9048C33.1493 26.1131 33.0002 26.3039 32.8282 26.4732C33.0418 26.5848 33.2434 26.7191 33.4288 26.875C33.6035 27.0215 33.7607 27.1868 33.8978 27.3682C34.0349 27.5509 34.1518 27.7485 34.2458 27.9567C34.3439 28.1691 34.4178 28.3921 34.4675 28.6205C34.5952 29.1997 34.5697 29.8017 34.391 30.3674C34.2136 30.9331 33.8897 31.4411 33.453 31.8429C33.0902 32.1855 32.6589 32.4475 32.1872 32.6115C31.6806 32.7835 31.1485 32.8681 30.6137 32.8614H27.2126H27.214ZM29.235 30.8404H30.0547C30.3691 30.8445 30.6835 30.827 30.9953 30.7894C31.1915 30.7692 31.3836 30.7235 31.5677 30.6536C31.6994 30.5985 31.8217 30.5246 31.9319 30.4346C32.1509 30.2545 32.3149 30.0154 32.4035 29.7466C32.4425 29.619 32.4627 29.4859 32.4627 29.3529C32.4654 29.1849 32.4371 29.0196 32.3794 28.8624C32.3202 28.7079 32.2342 28.5668 32.1254 28.4432C32.0058 28.3075 31.8634 28.1932 31.7048 28.1045C31.5194 28.0024 31.3218 27.9258 31.1149 27.8788C30.8972 27.8331 30.6768 27.8049 30.4538 27.7928C30.1581 27.7713 29.7873 27.7619 29.3411 27.7619H29.2363L29.2336 30.8418L29.235 30.8404ZM29.235 25.7113H29.3465C29.6462 25.714 29.9472 25.6979 30.2455 25.663C30.4323 25.6441 30.6164 25.6038 30.7937 25.542C30.916 25.4936 31.0302 25.4278 31.1337 25.3472C31.2318 25.2692 31.3178 25.1779 31.3877 25.0744C31.4589 24.9736 31.514 24.8621 31.5503 24.7438C31.5865 24.6229 31.604 24.4979 31.6027 24.373C31.6067 24.2198 31.5785 24.0666 31.5207 23.9255C31.4656 23.8032 31.3823 23.6971 31.2775 23.6137C31.1364 23.5103 30.9765 23.4391 30.8058 23.4028C30.5304 23.3383 30.2482 23.3087 29.966 23.3141H29.235V25.714V25.7113ZM18.9459 32.8614L23.4018 23.3101H19.697V21.2891H26.5515L22.1104 30.8391H26.049V32.8601H18.9445L18.9459 32.8614ZM10.7934 31.2489C10.8444 31.1428 10.8847 31.0326 10.9116 30.9184C12.9555 31.945 15.2035 32.504 17.492 32.551C17.3925 32.551 17.2931 32.555 17.195 32.555C14.9939 32.5591 12.8157 32.1143 10.7934 31.2489ZM7.6248 30.5112C7.6248 30.1605 7.73499 29.8178 7.94058 29.5343C7.91908 29.5652 7.89758 29.5961 7.87743 29.627C5.9384 28.2752 4.31783 26.5176 3.12727 24.4751C1.93671 22.4326 1.20705 20.1563 0.986679 17.8034C0.692398 17.6717 0.442461 17.4567 0.267773 17.1866C0.0930859 16.9165 -0.000976562 16.6007 -0.000976562 16.2782C-0.000976562 15.9557 0.0917422 15.6399 0.267773 15.3698C0.442461 15.0997 0.692398 14.8847 0.986679 14.7531C1.22855 12.1932 2.07377 9.72609 3.45246 7.55593C4.83115 5.38443 6.70433 3.57171 8.91883 2.26424C11.1333 0.955433 13.626 0.190839 16.1926 0.030933C18.7591 -0.127629 21.327 0.322527 23.6866 1.34646L23.6826 1.35049C23.9299 1.15968 24.2241 1.04143 24.5345 1.00918C24.845 0.976933 25.158 1.03337 25.4389 1.17043C25.7197 1.30749 25.9562 1.51981 26.1215 1.78453C26.2868 2.04924 26.3755 2.35428 26.3755 2.66737C26.3755 2.75203 26.3688 2.83668 26.3567 2.91999C26.3607 2.88909 26.3647 2.85818 26.3688 2.82593C28.3266 4.16028 29.9687 5.90581 31.1807 7.94159C32.3928 9.97737 33.1466 12.2523 33.3885 14.6093H33.4732C33.7473 14.6093 34.0174 14.6765 34.2593 14.8055C34.5011 14.9345 34.7067 15.1212 34.8599 15.3483C35.0131 15.5754 35.1072 15.8375 35.134 16.1102C35.1623 16.383 35.122 16.6585 35.0185 16.9111C34.915 17.1651 34.7497 17.3895 34.5388 17.5642C34.3278 17.7389 34.0765 17.8598 33.8091 17.9149C33.5404 17.97 33.2635 17.9579 33.0002 17.8813C32.7368 17.8034 32.4976 17.6623 32.3028 17.4701C31.1445 17.7993 29.9606 18.0251 28.7633 18.1487C26.5112 18.4188 23.606 18.611 20.3582 18.6862C18.5777 21.926 16.4761 24.979 14.0856 27.7982C13.2 28.8745 12.1465 29.8017 10.9681 30.5448C10.964 30.9882 10.784 31.4102 10.4668 31.7206C10.1511 32.031 9.72374 32.203 9.28165 32.1976C8.83821 32.1936 8.41627 32.0135 8.10586 31.6964C7.79546 31.3806 7.62346 30.9533 7.62883 30.5112H7.6248ZM12.125 26.2005C11.4048 27.4958 10.8055 28.5345 10.3714 29.2373C10.5824 29.416 10.745 29.6445 10.8458 29.9011C11.867 29.1796 12.7902 28.3263 13.5897 27.3641C15.8687 24.6793 17.879 21.7768 19.5922 18.6996C18.8088 18.7131 18.0093 18.7198 17.1936 18.7198C16.8725 18.7198 16.5527 18.7198 16.2342 18.7158C14.6634 21.5995 13.239 24.1929 12.125 26.1978V26.2005ZM8.24562 29.2105C8.17171 29.2709 8.10318 29.3368 8.04002 29.408C8.11527 29.322 8.19993 29.244 8.2913 29.1755C8.17037 29.029 8.05211 28.8772 7.93521 28.7186C6.00693 26.1145 4.50058 21.3804 4.32724 17.966C3.7024 17.8652 3.14205 17.7523 2.65159 17.6273C2.57634 17.6824 2.49705 17.7295 2.41509 17.7711C2.50646 19.9856 3.07487 22.1531 4.08134 24.1271C5.0878 26.101 6.50815 27.8358 8.24562 29.2105ZM10.0664 29.029C10.4225 28.2833 10.956 27.2271 11.6426 25.9371C12.676 23.9873 14.0143 21.4879 15.514 18.7117C14.4054 18.6983 13.329 18.6714 12.297 18.6325C11.2664 20.7529 10.397 22.9472 9.69687 25.198C9.30315 26.3859 9.06665 27.6195 8.99274 28.8691C9.09218 28.8503 9.1943 28.8409 9.29508 28.8409C9.56249 28.8409 9.82721 28.9054 10.0651 29.029H10.0677H10.0664ZM5.56618 18.1393C5.59171 21.1291 6.84543 26.2663 8.37461 28.8396C8.42433 27.5375 8.6568 26.2502 9.06127 25.0112C9.74255 22.8155 10.5837 20.6736 11.5795 18.6016C9.32196 18.5021 7.29424 18.3449 5.62396 18.1447L5.48018 18.1272L5.56618 18.138V18.1393ZM17.4772 16.4421C17.2393 16.8802 17.0055 17.3129 16.7717 17.7416H17.191C18.2028 17.7416 19.1918 17.7308 20.1512 17.7106C20.6753 16.762 21.1658 15.8254 21.62 14.9076C20.5665 14.8726 19.4726 14.8485 18.3439 14.8404C18.0604 15.3591 17.7728 15.8899 17.4785 16.4314V16.4421H17.4772ZM14.2334 14.8673C13.7093 15.816 13.2202 16.7526 12.766 17.6703C13.8181 17.7053 14.9133 17.7295 16.0407 17.7389C16.3256 17.2121 16.6158 16.6786 16.9101 16.1385C17.148 15.7004 17.3831 15.2677 17.6156 14.8391H17.1896C16.1818 14.8243 15.1915 14.8364 14.232 14.8565V14.8673H14.2334ZM20.9145 17.6918C23.8949 17.6085 26.5582 17.4258 28.6464 17.1758C30.0063 17.0132 31.1041 16.8493 31.8526 16.6975C31.7868 16.4301 31.7868 16.1492 31.8526 15.8818C31.1028 15.7286 30.0063 15.566 28.6464 15.4034C26.8969 15.1938 24.7455 15.0312 22.3415 14.9358C21.8995 15.8267 21.4238 16.7472 20.9145 17.6811V17.6918ZM5.73952 17.1758C7.48908 17.3855 9.64043 17.5467 12.0444 17.6435C12.4865 16.7431 12.9635 15.8213 13.4715 14.8874C10.5434 14.9694 7.92177 15.1468 5.84971 15.39C5.7234 15.9732 5.64008 16.5644 5.59708 17.1597L5.73952 17.1758ZM3.24955 15.7488C3.3678 16.0995 3.3678 16.4784 3.24955 16.8291C3.56802 16.8829 3.92412 16.9366 4.31649 16.9917C4.32858 16.5161 4.36487 16.0417 4.42668 15.5687C3.99399 15.6184 3.60027 15.6789 3.25224 15.7367V15.7474L3.24955 15.7488ZM4.46027 15.3228L4.46565 15.2906L4.47505 15.2314C4.48312 15.1804 4.49118 15.1293 4.49924 15.0796C4.48715 15.1535 4.47505 15.2301 4.46296 15.3121V15.3228H4.46027ZM25.326 7.55727C24.6434 9.74759 23.8022 11.8855 22.8078 13.9535C25.0653 14.053 27.093 14.2088 28.7633 14.4091C29.9606 14.5313 31.1445 14.7584 32.3028 15.0876C32.4009 14.9909 32.511 14.9062 32.6306 14.835C30.9415 11.7027 28.4556 9.07302 25.4228 7.21193C25.451 7.11249 25.4779 7.0144 25.5034 6.91496C25.4483 7.12056 25.3892 7.32884 25.326 7.54249V7.55727ZM5.92765 15.0473L5.94108 14.9922L5.92765 15.0406V15.0473ZM2.65293 14.9277C3.21058 14.7866 3.8623 14.659 4.59599 14.5475C5.2383 11.4595 6.92471 8.68602 9.37302 6.69593C11.82 4.70584 14.8784 3.61874 18.0321 3.61874C19.0252 3.62412 20.0128 3.76521 20.9669 4.03799C21.5044 3.4669 22.0876 2.94284 22.7138 2.46984C20.5745 1.75899 18.3049 1.52653 16.0662 1.78587C13.8276 2.04521 11.6722 2.79234 9.75196 3.97484C7.83174 5.15599 6.19371 6.74431 4.95343 8.62556C3.7118 10.5081 2.89884 12.638 2.56827 14.8686C2.59649 14.8874 2.62471 14.9062 2.65427 14.9277H2.65293ZM4.53149 14.8861V14.8821C4.54896 14.788 4.56643 14.6939 4.58658 14.5999L4.59733 14.5475C4.57718 14.659 4.55568 14.7719 4.53283 14.8847L4.53149 14.8861ZM32.8658 14.7208C32.9343 14.6939 33.0055 14.6724 33.0768 14.655C32.7247 12.4808 31.9117 10.4074 30.6916 8.57315C29.4715 6.73893 27.8751 5.1869 26.006 4.02187C25.9616 4.78646 25.846 5.54434 25.6606 6.28743C29.0455 8.58659 31.78 11.9607 32.8645 14.7208H32.8658ZM6.1104 14.3795L6.09965 14.4185L6.11174 14.3768V14.3808L6.1104 14.3795ZM6.11577 14.3634C8.29399 14.1269 11.0137 13.9522 14.0264 13.8823C15.733 10.789 17.7231 7.86231 19.9712 5.13853C20.0505 5.15196 20.1499 5.16809 20.2722 5.18421H20.2681C20.1983 5.17212 20.127 5.16137 20.0572 5.15062L19.9712 5.13853C19.5089 5.07268 19.0413 5.03909 18.575 5.03774C15.78 5.07134 13.0683 5.99181 10.8296 7.66612C8.59096 9.34043 6.94218 11.6812 6.11846 14.3526L6.11577 14.3634ZM22.7474 6.61934C21.7154 8.56912 20.3756 11.0685 18.8774 13.8447C19.9846 13.8581 21.061 13.885 22.093 13.9253C23.1236 11.8049 23.993 9.61052 24.6945 7.35974C24.7925 7.02515 24.8826 6.70399 24.9605 6.39627C24.9215 6.55081 24.8785 6.70802 24.8342 6.87062C24.2645 6.54812 23.6759 6.25921 23.0725 6.00793C23.2486 5.67199 23.4125 5.35621 23.5657 5.05924C24.0804 5.31724 24.587 5.60481 25.0801 5.91521C25.2158 5.35218 25.3139 4.78109 25.3717 4.20462C25.1554 4.29868 24.9215 4.34571 24.6864 4.34302C24.4512 4.34034 24.2188 4.28793 24.0051 4.18849C23.6745 4.85365 23.2513 5.67468 22.7487 6.62202L22.7474 6.61934ZM20.7277 5.27021C18.4796 7.93487 16.4922 10.8091 14.7951 13.8554C15.5785 13.842 16.3793 13.8353 17.1923 13.8353C17.5148 13.8353 17.8346 13.8353 18.1517 13.8393C19.7226 10.9556 21.147 8.36218 22.2609 6.35865C22.3657 6.16918 22.4692 5.98509 22.5686 5.80637C21.847 5.53627 21.1013 5.33202 20.3421 5.19765H20.3246L20.2896 5.19227C20.4361 5.21512 20.5812 5.24199 20.7264 5.2729L20.7277 5.27021ZM23.1182 4.83752C23.3037 4.51368 23.4757 4.21806 23.6342 3.94796C23.34 3.70206 23.1384 3.36209 23.0658 2.98449C22.5713 3.37418 22.1037 3.79746 21.667 4.25165C22.1601 4.42096 22.6452 4.61715 23.1182 4.83618V4.83752ZM20.8016 4.20865L20.8339 4.17371C20.8755 4.12937 20.9172 4.08637 20.9588 4.04337C20.9064 4.09846 20.854 4.15356 20.8016 4.20865ZM21.4372 4.17774H21.4412H21.4345H21.4385H21.4372ZM21.4144 4.17103H21.4197L21.2907 4.13071L21.4157 4.17103H21.4144ZM21.1416 4.0904L21.1523 4.09309L21.1792 4.10115L21.1416 4.0904ZM21.0972 4.07696H21.1026L21.0865 4.07159L21.0972 4.07696ZM26.0113 3.79478V3.76118C26.0113 3.77328 26.0113 3.78403 26.0113 3.79343V3.79478ZM31.4643 6.10065C31.0813 5.71634 30.8421 5.21109 30.7897 4.6709C30.7373 4.13071 30.873 3.58918 31.174 3.13768C31.475 2.68618 31.9252 2.35428 32.4439 2.19706C32.9639 2.03984 33.5215 2.06671 34.0228 2.27499C34.524 2.48328 34.9379 2.85818 35.1932 3.33656C35.4485 3.81493 35.5305 4.36856 35.4243 4.90068C35.3181 5.43281 35.0306 5.91252 34.6113 6.25653C34.1921 6.60052 33.6653 6.78865 33.1225 6.78865C32.8147 6.78865 32.5084 6.72818 32.2235 6.61127C31.9386 6.49302 31.6793 6.32102 31.4616 6.10199L31.4643 6.10065ZM32.163 3.47899C31.94 3.70071 31.8015 3.99365 31.7706 4.30674C31.7397 4.61984 31.8177 4.93427 31.9924 5.19631C32.167 5.45834 32.4264 5.65184 32.7274 5.74321C33.0284 5.83459 33.3522 5.81981 33.6425 5.69887C33.9327 5.57927 34.1733 5.36159 34.3224 5.08343C34.4702 4.80662 34.5186 4.48546 34.4568 4.17774C34.395 3.86868 34.2297 3.59187 33.9865 3.39165C33.7433 3.19143 33.4382 3.08259 33.1238 3.08259C32.9451 3.08259 32.769 3.11753 32.6038 3.18606C32.4385 3.25459 32.2893 3.35403 32.163 3.48034V3.47899Z" fill="#00258A"/>
<path fill-rule="evenodd" clip-rule="evenodd" d="M88.4446 38.5199V37.6573C88.3815 37.6277 88.3143 37.6049 88.2471 37.5874C88.1866 37.5739 88.1248 37.5672 88.063 37.5672C87.9971 37.5645 87.9326 37.5753 87.8722 37.6008C87.8117 37.6264 87.7579 37.6653 87.7163 37.715C87.6249 37.8373 87.5792 37.9892 87.59 38.1424C87.5806 38.2834 87.6142 38.4245 87.6841 38.5468C87.7203 38.5938 87.7673 38.6315 87.8224 38.6557C87.8775 38.6799 87.9367 38.6893 87.9958 38.6839C88.0764 38.6839 88.157 38.6691 88.2323 38.6395C88.3089 38.61 88.3801 38.5697 88.4446 38.5199ZM88.712 38.7739C88.7308 38.9876 88.665 39.2012 88.5279 39.3665C88.4513 39.435 88.3613 39.4861 88.2645 39.5184C88.1678 39.5506 88.0643 39.5627 87.9622 39.5546C87.8789 39.5546 87.7969 39.5493 87.715 39.5358C87.6343 39.5251 87.5564 39.5076 87.4785 39.4861V39.2147H87.4919C87.5349 39.2308 87.6048 39.2523 87.7002 39.2765C87.7929 39.3007 87.8883 39.3128 87.9851 39.3128C88.0616 39.3154 88.1382 39.3034 88.2121 39.2805C88.2659 39.263 88.3129 39.2321 88.3519 39.1905C88.3855 39.1529 88.411 39.1072 88.4231 39.0574C88.4379 39.001 88.4446 38.9432 88.4446 38.8841V38.7403C88.3734 38.7981 88.2968 38.8465 88.2135 38.8841C88.1234 38.919 88.0281 38.9352 87.9326 38.9311C87.8466 38.9352 87.7606 38.9177 87.6827 38.8814C87.6048 38.8465 87.5349 38.7927 87.4811 38.7255C87.3602 38.5576 87.2997 38.3533 87.3132 38.1477C87.3105 38.0268 87.3306 37.9058 87.3723 37.7916C87.4072 37.6976 87.461 37.6102 87.5282 37.535C87.5913 37.4678 87.6679 37.414 87.7539 37.3791C87.8372 37.3428 87.9259 37.324 88.0173 37.3227C88.0952 37.3213 88.1732 37.3307 88.2484 37.3495C88.3169 37.371 88.3828 37.3993 88.4459 37.4342L88.4621 37.3657H88.7134V38.7699L88.712 38.7739ZM86.6453 38.5643V38.1195C86.5647 38.1235 86.4679 38.1316 86.3591 38.141C86.2704 38.1464 86.1831 38.1612 86.0971 38.1827C86.0285 38.2001 85.9641 38.2351 85.9116 38.2848C85.8875 38.3103 85.8686 38.3399 85.8565 38.3735C85.8444 38.4057 85.8391 38.4407 85.8404 38.4756C85.8377 38.5146 85.8431 38.5522 85.8579 38.5885C85.8727 38.6248 85.8942 38.6557 85.9237 38.6825C85.9963 38.7336 86.085 38.7591 86.1737 38.7524C86.2624 38.7524 86.3497 38.7349 86.4303 38.6973C86.5056 38.661 86.5781 38.6167 86.644 38.5656L86.6453 38.5643ZM86.9127 38.9553H86.6453V38.7847C86.6211 38.8008 86.5902 38.8236 86.5499 38.8519C86.5123 38.8787 86.4733 38.9016 86.4317 38.9217C86.3833 38.9446 86.3309 38.9634 86.2785 38.9768C86.2126 38.9929 86.1441 38.9997 86.0756 38.9997C86.0084 38.9997 85.9425 38.9889 85.8807 38.9647C85.8189 38.9405 85.7611 38.9043 85.7141 38.8572C85.6657 38.8102 85.6268 38.7538 85.6012 38.6919C85.5757 38.6301 85.5636 38.5629 85.5649 38.4944C85.5582 38.395 85.5824 38.2955 85.6362 38.2109C85.6899 38.1262 85.7679 38.0617 85.8619 38.0254C85.9721 37.9784 86.089 37.9502 86.2086 37.9394C86.3443 37.9247 86.4895 37.9139 86.6426 37.9059V37.8642C86.644 37.8118 86.6332 37.7594 86.6104 37.7123C86.5902 37.6734 86.558 37.6398 86.519 37.6183C86.4774 37.5954 86.4303 37.5793 86.3833 37.5739C86.3282 37.5659 86.2731 37.5619 86.218 37.5619C86.1401 37.5619 86.0621 37.5726 85.9855 37.5901C85.8942 37.6102 85.8055 37.6371 85.7181 37.672H85.7047V37.4006C85.7558 37.3872 85.8324 37.371 85.9304 37.3549C86.0272 37.3374 86.124 37.3294 86.222 37.3294C86.3201 37.3294 86.4182 37.3374 86.5136 37.3563C86.5916 37.3724 86.6641 37.4046 86.7286 37.4517C86.7878 37.4947 86.8348 37.5538 86.8644 37.621C86.8979 37.7029 86.9141 37.7903 86.9114 37.879V38.9553H86.9127ZM84.4053 37.6599H84.3905C84.3515 37.6505 84.3112 37.6438 84.2723 37.6398C84.2279 37.6358 84.1836 37.6331 84.1406 37.6344C84.0586 37.6344 83.978 37.6532 83.9027 37.6895C83.8234 37.7271 83.7495 37.7755 83.681 37.8306V38.9567H83.4136V37.3697H83.681V37.6035C83.767 37.5323 83.8611 37.4732 83.9619 37.4261C84.0398 37.3912 84.1245 37.3724 84.2104 37.3724H84.3112C84.3314 37.3724 84.3636 37.3791 84.4053 37.3858V37.6599ZM82.6342 38.5643V38.1195C82.5536 38.1235 82.4569 38.1316 82.3494 38.141C82.2607 38.1464 82.1747 38.1612 82.0887 38.1827C82.0188 38.2001 81.9556 38.2351 81.9032 38.2848C81.8562 38.3412 81.8307 38.4124 81.832 38.485C81.8347 38.5589 81.8629 38.6288 81.914 38.6812C81.9865 38.7323 82.0752 38.7564 82.1639 38.7511C82.2526 38.7511 82.3399 38.7336 82.4192 38.696C82.4958 38.6597 82.567 38.6153 82.6342 38.5643ZM82.9016 38.954H82.6342V38.7833C82.61 38.7994 82.5791 38.8223 82.5388 38.8505C82.5012 38.8774 82.4622 38.9002 82.4206 38.9204C82.3722 38.9432 82.3198 38.962 82.2674 38.9755C82.2015 38.9916 82.133 38.9983 82.0658 38.9983C81.9986 38.9983 81.9328 38.9876 81.8696 38.9634C81.8078 38.9392 81.75 38.9029 81.703 38.8559C81.6546 38.8089 81.6157 38.7524 81.5901 38.6906C81.5646 38.6288 81.5525 38.5616 81.5552 38.4931C81.5498 38.3896 81.5767 38.2875 81.6318 38.2015C81.6869 38.1222 81.7635 38.0604 81.8522 38.0241C81.9624 37.9771 82.0793 37.9488 82.1989 37.9381C82.3346 37.922 82.4784 37.9126 82.6329 37.9045V37.8629C82.6342 37.8104 82.6235 37.758 82.6006 37.711C82.5805 37.672 82.5482 37.6384 82.5106 37.6169C82.469 37.5941 82.4219 37.578 82.3736 37.5726C82.2405 37.5524 82.1048 37.5578 81.9744 37.5887C81.8831 37.6089 81.7944 37.6371 81.707 37.6707H81.6936V37.3993C81.746 37.3858 81.8213 37.3697 81.9194 37.3536C82.0148 37.3374 82.1129 37.328 82.2096 37.328C82.3077 37.328 82.4058 37.3361 82.5025 37.3549C82.5805 37.371 82.653 37.4033 82.7175 37.4503C82.7767 37.4933 82.8237 37.5524 82.8546 37.6196C82.8882 37.7016 82.9043 37.7889 82.9003 37.8776V38.9553L82.9016 38.954ZM80.8685 38.954V36.7408H81.1373V38.954H80.8685ZM80.0892 38.5643V38.1195C80.0085 38.1235 79.9118 38.1316 79.8043 38.141C79.7156 38.1464 79.6283 38.1612 79.5423 38.1827C79.4724 38.2001 79.4092 38.2364 79.3568 38.2848C79.3098 38.3412 79.2843 38.4124 79.2856 38.485C79.2883 38.5589 79.3165 38.6288 79.3676 38.6812C79.4401 38.7323 79.5288 38.7564 79.6175 38.7511C79.7062 38.7511 79.7935 38.7336 79.8742 38.696C79.9494 38.6597 80.022 38.6153 80.0878 38.5643H80.0892ZM80.3566 38.954H80.0892V38.7833C80.065 38.7994 80.0341 38.8223 79.9938 38.8505C79.9561 38.8774 79.9172 38.9002 79.8755 38.9204C79.8258 38.9432 79.7747 38.962 79.7223 38.9755C79.6565 38.9916 79.588 38.9983 79.5194 38.9983C79.4522 38.9983 79.3864 38.9876 79.3246 38.9634C79.2628 38.9392 79.205 38.9029 79.158 38.8559C79.1096 38.8089 79.0706 38.7524 79.0451 38.6906C79.0195 38.6288 79.0074 38.5616 79.0088 38.4931C79.0034 38.3896 79.0316 38.2875 79.0867 38.2015C79.1418 38.1222 79.2184 38.0604 79.3071 38.0241C79.4173 37.9771 79.5342 37.9488 79.6538 37.9381C79.7895 37.922 79.9346 37.9126 80.0878 37.9045V37.8629C80.0892 37.8104 80.0784 37.758 80.0556 37.711C80.0354 37.672 80.0032 37.6384 79.9656 37.6169C79.9239 37.5941 79.8769 37.578 79.8285 37.5726C79.6954 37.5524 79.5597 37.5578 79.4294 37.5887C79.338 37.6089 79.2493 37.6358 79.162 37.6707H79.1485V37.3993C79.201 37.3858 79.2762 37.3697 79.3743 37.3536C79.4697 37.3374 79.5678 37.328 79.6645 37.328C79.7626 37.328 79.8607 37.3361 79.9575 37.3549C80.0354 37.371 80.108 37.4033 80.1725 37.4503C80.2316 37.4933 80.2786 37.5524 80.3082 37.6196C80.3418 37.7016 80.3566 37.7889 80.3539 37.8776V38.9553L80.3566 38.954ZM78.8287 37.3697L77.9029 39.5385H77.6207L77.9136 38.8774L77.2848 37.3697H77.575L78.0614 38.5455L78.5533 37.3697H78.8287ZM76.926 38.954H76.6586V37.3697H76.926V38.954ZM76.9435 37.1009H76.6424V36.8255H76.9435V37.1009ZM75.8671 38.5199V37.6573C75.804 37.6277 75.7368 37.6049 75.6696 37.5874C75.6091 37.5739 75.5486 37.5672 75.4868 37.5672C75.421 37.5645 75.3565 37.5753 75.296 37.6008C75.2355 37.6264 75.1818 37.6653 75.1401 37.715C75.0474 37.8373 75.0031 37.9892 75.0138 38.1424C75.0044 38.2834 75.0367 38.4245 75.1079 38.5468C75.1442 38.5938 75.1912 38.6315 75.2463 38.6557C75.3014 38.6799 75.3605 38.6893 75.4196 38.6839C75.4989 38.6839 75.5782 38.6691 75.6535 38.6395C75.7314 38.61 75.804 38.571 75.8698 38.5199H75.8671ZM76.1345 38.7739C76.1533 38.9876 76.0875 39.1999 75.9504 39.3665C75.8738 39.4337 75.7838 39.4861 75.687 39.5184C75.5903 39.5506 75.4868 39.5627 75.3847 39.5546C75.3014 39.5546 75.2194 39.5493 75.1375 39.5358C75.0568 39.5251 74.9775 39.5076 74.8996 39.4861V39.2147H74.913C74.9574 39.2308 75.0259 39.2523 75.1213 39.2765C75.2141 39.3007 75.3108 39.3128 75.4075 39.3128C75.4841 39.3154 75.5607 39.3034 75.6333 39.2805C75.687 39.263 75.7354 39.2308 75.7744 39.1905C75.808 39.1529 75.8322 39.1072 75.8456 39.0574C75.8604 39.001 75.8671 38.9432 75.8658 38.8841V38.7403C75.7959 38.7981 75.7179 38.8465 75.6346 38.8841C75.5446 38.919 75.4492 38.9352 75.3538 38.9311C75.2678 38.9338 75.1818 38.9177 75.1039 38.8814C75.0259 38.8465 74.956 38.7927 74.9023 38.7255C74.7814 38.5576 74.7222 38.3533 74.7357 38.1477C74.733 38.0268 74.7531 37.9058 74.7948 37.7916C74.8311 37.6976 74.8848 37.6102 74.952 37.535C75.0152 37.4678 75.0918 37.414 75.1764 37.3791C75.2597 37.3428 75.3484 37.324 75.4398 37.3227C75.5177 37.3213 75.5957 37.3307 75.6709 37.3495C75.7395 37.371 75.8053 37.3993 75.8671 37.4342L75.8846 37.3657H76.1359L76.1332 38.7699L76.1345 38.7739ZM74.1579 38.1639C74.1713 38.0026 74.1296 37.8427 74.0396 37.7083C73.998 37.6613 73.9455 37.6237 73.8878 37.5981C73.83 37.5726 73.7682 37.5592 73.705 37.5592C73.6419 37.5592 73.5787 37.5726 73.5223 37.5981C73.4658 37.6237 73.4134 37.6613 73.3704 37.7083C73.2911 37.8467 73.2495 38.0026 73.2495 38.1612C73.2495 38.3197 73.2911 38.4756 73.3704 38.614C73.4121 38.6624 73.4631 38.7 73.5209 38.7269C73.5787 38.7538 73.6419 38.7672 73.705 38.7672C73.7682 38.7672 73.8313 38.7538 73.8891 38.7269C73.9469 38.7 73.998 38.6624 74.0396 38.614C74.1296 38.4823 74.1713 38.3238 74.1605 38.1639H74.1579ZM74.4333 38.1639C74.4454 38.3856 74.3755 38.6033 74.2358 38.7766C74.1659 38.8478 74.0826 38.9043 73.9912 38.9419C73.8999 38.9809 73.8018 38.9997 73.7023 38.9997C73.6029 38.9997 73.5048 38.9795 73.4134 38.9419C73.3221 38.9029 73.2387 38.8465 73.1689 38.7766C73.0399 38.5992 72.97 38.3842 72.97 38.1652C72.97 37.9462 73.0399 37.7312 73.1689 37.5538C73.2387 37.4826 73.3207 37.4261 73.4134 37.3872C73.5048 37.3482 73.6029 37.328 73.7023 37.328C73.8018 37.328 73.8999 37.3482 73.9912 37.3872C74.0826 37.4261 74.1659 37.4826 74.2358 37.5538C74.3755 37.7258 74.4468 37.9435 74.4333 38.1652V38.1639ZM72.5507 38.9567H72.2833V36.7408H72.5507V38.9567ZM71.594 38.1639C71.6061 38.0026 71.5644 37.8427 71.4757 37.7083C71.4341 37.6613 71.3817 37.6237 71.3239 37.5981C71.2661 37.5726 71.2043 37.5592 71.1411 37.5592C71.078 37.5592 71.0162 37.5726 70.9584 37.5981C70.9006 37.6237 70.8495 37.6613 70.8065 37.7083C70.7286 37.8467 70.687 38.0026 70.687 38.1612C70.687 38.3197 70.7286 38.4756 70.8065 38.614C70.8482 38.6624 70.8993 38.7 70.957 38.7269C71.0148 38.7538 71.0766 38.7672 71.1411 38.7672C71.2056 38.7672 71.2674 38.7538 71.3252 38.7269C71.383 38.7 71.4341 38.6624 71.4757 38.614C71.5644 38.4823 71.6074 38.3238 71.5953 38.1639H71.594ZM71.8708 38.1639C71.8829 38.3856 71.8117 38.6033 71.6719 38.7766C71.602 38.8478 71.5187 38.9043 71.4274 38.9419C71.336 38.9809 71.2379 38.9997 71.1385 38.9997C71.039 38.9997 70.9409 38.9795 70.8495 38.9419C70.7582 38.9029 70.6749 38.8465 70.605 38.7766C70.476 38.5979 70.4075 38.3842 70.4075 38.1652C70.4075 37.9462 70.4773 37.7312 70.605 37.5538C70.6749 37.4826 70.7582 37.4261 70.8495 37.3872C70.9409 37.3482 71.039 37.328 71.1385 37.328C71.2379 37.328 71.336 37.3482 71.4274 37.3872C71.5187 37.4261 71.602 37.4826 71.6719 37.5538C71.8117 37.7258 71.8829 37.9435 71.8708 38.1652V38.1639ZM70.0057 38.9567H69.7383V38.051C69.7383 37.9824 69.7342 37.9139 69.7248 37.8454C69.7195 37.793 69.7047 37.7419 69.6778 37.6949C69.6536 37.6546 69.6173 37.6237 69.5743 37.6062C69.5192 37.5847 69.4601 37.5753 69.401 37.5766C69.3217 37.5766 69.2438 37.5968 69.1725 37.6304C69.0906 37.668 69.014 37.7137 68.9428 37.7688V38.954H68.6754V37.3684H68.9428V37.5457C69.0207 37.4799 69.108 37.4261 69.2008 37.3845C69.2881 37.3455 69.3808 37.3254 69.4762 37.3254C69.5488 37.32 69.6227 37.3321 69.6899 37.3589C69.7584 37.3858 69.8189 37.4275 69.8686 37.4799C69.9667 37.6062 70.0151 37.7661 70.0043 37.926V38.9553L70.0057 38.9567ZM68.3287 38.9567H67.9901L67.5439 38.3466L67.0911 38.9567H66.7807L67.3975 38.1639L66.786 37.3697H67.1233L67.5681 37.9677L68.0156 37.3697H68.3287L67.7065 38.1504L68.3287 38.9567ZM66.2942 37.9865C66.2996 37.8696 66.262 37.754 66.1881 37.6626C66.1464 37.6223 66.0967 37.5914 66.0416 37.5713C65.9865 37.5511 65.9287 37.543 65.871 37.5484C65.8078 37.5457 65.746 37.5551 65.6869 37.5766C65.6277 37.5981 65.574 37.6317 65.5283 37.6747C65.4436 37.758 65.3926 37.8696 65.3845 37.9878H66.2956L66.2942 37.9865ZM66.5522 38.1907H65.3832C65.3818 38.2781 65.3966 38.3641 65.4275 38.4447C65.453 38.5119 65.4934 38.5737 65.5458 38.6221C65.5968 38.6678 65.656 38.7027 65.7205 38.7242C65.793 38.747 65.8683 38.7591 65.9449 38.7578C66.0564 38.7578 66.1666 38.7349 66.2701 38.6933C66.3547 38.6637 66.4326 38.6207 66.5039 38.5656H66.5173V38.8572C66.4273 38.8949 66.3359 38.9258 66.2418 38.9526C66.1451 38.9782 66.0456 38.9916 65.9449 38.9916C65.7191 39.005 65.4974 38.9284 65.3281 38.7779C65.2515 38.6973 65.1924 38.6019 65.1534 38.4984C65.1158 38.3936 65.0996 38.2834 65.1064 38.1719C65.0943 37.9475 65.1709 37.7258 65.3187 37.5565C65.3899 37.4812 65.4772 37.4208 65.5726 37.3818C65.6681 37.3428 65.7729 37.324 65.8763 37.328C65.9677 37.3227 66.0591 37.3361 66.1437 37.3684C66.2297 37.4006 66.3063 37.4503 66.3708 37.5148C66.4945 37.664 66.5576 37.8548 66.5442 38.0483L66.5482 38.1894L66.5522 38.1907ZM64.9008 38.9419C64.847 38.9553 64.7919 38.9674 64.7368 38.9755C64.6844 38.9835 64.632 38.9876 64.5783 38.9876C64.5111 38.9929 64.4439 38.9835 64.3807 38.9607C64.3176 38.9379 64.2585 38.9029 64.2101 38.8559C64.1147 38.7376 64.069 38.5871 64.0838 38.4366V37.5928H63.9064V37.3684H64.0838V36.9115H64.3512V37.3684H64.9021V37.5928H64.3512V38.317C64.3512 38.4003 64.3512 38.4662 64.3579 38.5132C64.3606 38.5589 64.374 38.6046 64.3969 38.6449C64.4157 38.6812 64.4452 38.7108 64.4815 38.7282C64.5353 38.7484 64.5917 38.7578 64.6481 38.7538C64.6938 38.7538 64.7395 38.747 64.7839 38.7336C64.8188 38.7242 64.8524 38.7134 64.886 38.7014H64.9008V38.9419ZM62.2764 38.5643V38.1195C62.1958 38.1235 62.0991 38.1316 61.9902 38.141C61.9029 38.1464 61.8155 38.1612 61.7295 38.1827C61.6596 38.2001 61.5965 38.2351 61.5427 38.2848C61.4957 38.3412 61.4702 38.4124 61.4715 38.485C61.4729 38.5589 61.5024 38.6288 61.5535 38.6812C61.6261 38.7323 61.7147 38.7578 61.8034 38.7511C61.8921 38.7511 61.9795 38.7336 62.0587 38.696C62.1353 38.6597 62.2066 38.6153 62.2737 38.5643H62.2764ZM62.2778 38.9553V38.7847C62.2536 38.8008 62.2227 38.8236 62.1824 38.8519C62.1447 38.8787 62.1058 38.9016 62.0641 38.9217C62.0157 38.9446 61.9633 38.9634 61.9109 38.9768C61.8451 38.9929 61.7766 38.9997 61.708 38.9997C61.6408 38.9997 61.575 38.9889 61.5132 38.9647C61.4514 38.9405 61.3949 38.9043 61.3466 38.8572C61.2982 38.8102 61.2592 38.7538 61.2337 38.6919C61.2081 38.6301 61.1961 38.5629 61.1974 38.4944C61.1907 38.395 61.2149 38.2955 61.2686 38.2109C61.3224 38.1262 61.4003 38.0617 61.4944 38.0254C61.6046 37.9784 61.7215 37.9502 61.8411 37.9394C61.9754 37.9247 62.1205 37.9139 62.2751 37.9059V37.8642C62.2764 37.8118 62.2657 37.7594 62.2428 37.7123C62.2227 37.6734 62.1904 37.6398 62.1528 37.6183C62.1111 37.5954 62.0641 37.5793 62.0171 37.5739C61.8841 37.5538 61.7483 37.5592 61.618 37.5901C61.5266 37.6102 61.4379 37.6371 61.3519 37.672H61.3412V37.4006C61.3936 37.3872 61.4688 37.371 61.5669 37.3549C61.6623 37.3374 61.7604 37.3294 61.8585 37.3294C61.9566 37.3294 62.0547 37.3374 62.1501 37.3563C62.2281 37.3724 62.3006 37.4046 62.3651 37.4517C62.4242 37.4947 62.4713 37.5538 62.5008 37.621C62.5344 37.7029 62.5506 37.7903 62.5465 37.879V38.9553H62.2778ZM61.0173 37.3697L60.375 38.9553H60.1076L59.4693 37.3697H59.7582L60.2501 38.6301L60.7378 37.3697H61.0173ZM58.3728 37.6599H58.3581C58.3191 37.6505 58.2788 37.6438 58.2398 37.6398C58.1955 37.6358 58.1511 37.6331 58.1068 37.6344C58.0248 37.6344 57.9442 37.6532 57.8689 37.6895C57.7896 37.7271 57.7157 37.7755 57.6472 37.8306V38.9567H57.3798V37.3697H57.6472V37.6035C57.7332 37.5323 57.8273 37.4732 57.9281 37.4261C58.006 37.3912 58.0906 37.3724 58.1766 37.3724H58.2774C58.2976 37.3724 58.3298 37.3791 58.3715 37.3858V37.6599H58.3728ZM56.6018 38.5643V38.1195C56.5211 38.1235 56.4244 38.1316 56.3156 38.141C56.2269 38.1464 56.1395 38.1612 56.0535 38.1827C55.985 38.2001 55.9205 38.2364 55.8681 38.2848C55.821 38.3412 55.7955 38.4124 55.7969 38.485C55.7996 38.5589 55.8278 38.6288 55.8788 38.6812C55.9514 38.7323 56.0401 38.7564 56.1288 38.7511C56.2175 38.7511 56.3048 38.7336 56.3841 38.696C56.4607 38.6597 56.5319 38.6153 56.5991 38.5643H56.6018ZM56.8692 38.954H56.6018V38.7833C56.5776 38.7994 56.5467 38.8223 56.5064 38.8505C56.4687 38.8774 56.4298 38.9002 56.3881 38.9204C56.3384 38.9432 56.2873 38.962 56.2349 38.9755C56.1691 38.9916 56.1005 38.9983 56.0334 38.9983C55.9662 38.9983 55.9003 38.9876 55.8385 38.9634C55.7767 38.9392 55.7189 38.9029 55.6719 38.8559C55.6235 38.8089 55.5846 38.7524 55.559 38.6906C55.5335 38.6288 55.5214 38.5616 55.5241 38.4931C55.5187 38.3896 55.5456 38.2875 55.6007 38.2015C55.6558 38.1222 55.7324 38.0604 55.8211 38.0241C55.9312 37.9771 56.0481 37.9488 56.1677 37.9381C56.3021 37.922 56.4472 37.9126 56.6018 37.9045V37.8629C56.6031 37.8104 56.5924 37.758 56.5695 37.711C56.5494 37.672 56.5171 37.6384 56.4795 37.6169C56.4378 37.5941 56.3908 37.5793 56.3438 37.5726C56.2887 37.5645 56.2336 37.5605 56.1771 37.5605C56.0992 37.5605 56.0213 37.5713 55.9447 37.5887C55.8533 37.6089 55.7646 37.6358 55.6773 37.6707H55.6625V37.3993C55.7149 37.3858 55.7901 37.3697 55.8896 37.3536C55.985 37.3361 56.0831 37.328 56.1812 37.328C56.2793 37.328 56.3774 37.3361 56.4728 37.3549C56.5507 37.371 56.6233 37.4033 56.6878 37.4503C56.7469 37.4933 56.7939 37.5524 56.8235 37.6196C56.8571 37.7016 56.8732 37.7889 56.8705 37.8776V38.9553L56.8692 38.954ZM55.1035 38.954H54.8361V36.7408H55.1035V38.954ZM54.5109 38.9405C54.4571 38.9553 54.4021 38.9661 54.347 38.9741C54.2946 38.9822 54.2421 38.9862 54.1884 38.9862C54.1212 38.9916 54.054 38.9822 53.9895 38.9594C53.9264 38.9365 53.8672 38.9016 53.8189 38.8545C53.7248 38.7363 53.6791 38.5858 53.6926 38.4353V37.5914H53.5152V37.367H53.6926V36.9101H53.96V37.367H54.5095V37.5914H53.96V38.3157C53.96 38.399 53.96 38.4649 53.9653 38.5119C53.9694 38.5576 53.9828 38.6033 54.0056 38.6422C54.0245 38.6785 54.054 38.7081 54.0903 38.7255C54.1427 38.7457 54.2005 38.7551 54.2569 38.7511C54.3026 38.7511 54.3483 38.743 54.3926 38.7309C54.4276 38.7215 54.4612 38.7108 54.4948 38.6987H54.5082V38.9392L54.5109 38.9405ZM53.0005 38.1639C53.014 38.0026 52.9723 37.8427 52.8823 37.7083C52.8393 37.6613 52.7882 37.6237 52.7304 37.5981C52.6726 37.5726 52.6108 37.5592 52.5477 37.5592C52.4845 37.5592 52.4214 37.5726 52.3649 37.5981C52.3085 37.6237 52.2561 37.6613 52.2131 37.7083C52.1338 37.8467 52.0921 38.0026 52.0921 38.1612C52.0921 38.3197 52.1338 38.4756 52.2131 38.614C52.2547 38.6624 52.3058 38.7 52.3636 38.7269C52.4214 38.7538 52.4845 38.7672 52.5477 38.7672C52.6108 38.7672 52.674 38.7538 52.7318 38.7269C52.7896 38.7 52.8406 38.6624 52.8823 38.614C52.9723 38.4823 53.014 38.3238 53.0032 38.1639H53.0005ZM53.276 38.1639C53.2881 38.3856 53.2169 38.6046 53.0771 38.7766C53.0072 38.8478 52.9239 38.9043 52.8326 38.9419C52.7412 38.9809 52.6431 38.9997 52.5436 38.9997C52.4442 38.9997 52.3461 38.9795 52.2547 38.9419C52.1634 38.9029 52.0801 38.8465 52.0102 38.7766C51.8812 38.5992 51.8126 38.3842 51.8126 38.1652C51.8126 37.9462 51.8825 37.7312 52.0102 37.5538C52.0801 37.4826 52.162 37.4261 52.2547 37.3872C52.3461 37.3482 52.4442 37.328 52.5436 37.328C52.6431 37.328 52.7412 37.3482 52.8326 37.3872C52.9239 37.4261 53.0072 37.4826 53.0771 37.5538C53.2182 37.7258 53.2894 37.9435 53.2773 38.1652L53.276 38.1639ZM51.1327 38.5549V37.6586C51.0695 37.629 51.0037 37.6062 50.9365 37.5887C50.876 37.5753 50.8142 37.5686 50.7511 37.5686C50.6839 37.5645 50.6167 37.5766 50.5549 37.6035C50.4931 37.6304 50.4393 37.672 50.3977 37.7258C50.3117 37.8521 50.27 38.0053 50.2794 38.1585C50.2714 38.3076 50.305 38.4554 50.3762 38.5871C50.4098 38.6369 50.4555 38.6772 50.5092 38.7027C50.563 38.7282 50.6234 38.7403 50.6826 38.7363C50.7632 38.7363 50.8425 38.7188 50.915 38.6866C50.993 38.653 51.0655 38.6086 51.1314 38.5549H51.1327ZM51.4001 39.5412H51.1327V38.7779C51.0588 38.8438 50.9755 38.8975 50.8855 38.9379C50.8022 38.9728 50.7108 38.9916 50.6207 38.9903C50.5334 38.9929 50.4474 38.9741 50.3681 38.9365C50.2902 38.8989 50.2216 38.8424 50.1692 38.7726C50.047 38.5965 49.9878 38.3842 49.9999 38.1706C49.9986 38.0483 50.0187 37.926 50.0591 37.8091C50.094 37.7123 50.1464 37.6223 50.2149 37.5457C50.2767 37.4772 50.352 37.4234 50.4353 37.3858C50.52 37.3469 50.6113 37.3267 50.7027 37.3267C50.7793 37.3267 50.8559 37.3348 50.9298 37.3549C50.9997 37.3751 51.0682 37.4033 51.1314 37.4382L51.1475 37.3697H51.3988V39.5399L51.4001 39.5412ZM49.582 38.9567H49.3146V37.3697H49.582V38.9567ZM49.5981 37.1036H49.2958V36.8282H49.5981V37.1036ZM48.5232 38.5549V37.6586C48.46 37.629 48.3941 37.6062 48.327 37.5887C48.2651 37.5753 48.2033 37.5686 48.1402 37.5686C48.073 37.5645 48.0058 37.5766 47.9453 37.6035C47.8835 37.6304 47.8298 37.672 47.7881 37.7244C47.7021 37.8508 47.6605 38.0039 47.6699 38.1571C47.6605 38.3063 47.6954 38.4554 47.768 38.5858C47.8016 38.6355 47.8472 38.6758 47.901 38.7014C47.9547 38.7269 48.0152 38.739 48.0743 38.7349C48.155 38.7349 48.2342 38.7175 48.3081 38.6852C48.3861 38.6516 48.4586 38.6073 48.5245 38.5535L48.5232 38.5549ZM48.7906 39.5412H48.5232V38.7779C48.4506 38.8438 48.3673 38.8975 48.2772 38.9379C48.1939 38.9728 48.1026 38.9903 48.0125 38.9903C47.9252 38.9929 47.8392 38.9741 47.7599 38.9365C47.682 38.8989 47.6134 38.8424 47.561 38.7726C47.4401 38.5965 47.3796 38.3842 47.3917 38.1706C47.389 38.0483 47.4092 37.9247 47.4508 37.8091C47.4858 37.7123 47.5382 37.6223 47.6067 37.5457C47.6685 37.4772 47.7438 37.4234 47.8271 37.3858C47.9104 37.3469 48.0018 37.3267 48.0945 37.3267C48.1711 37.3267 48.2477 37.3348 48.3216 37.3549C48.3915 37.3751 48.4586 37.4033 48.5232 37.4382L48.5393 37.3697H48.7906V39.5412ZM46.7104 38.567V37.6599C46.6486 37.6304 46.5841 37.6089 46.5169 37.5941C46.4551 37.5807 46.3933 37.5739 46.3301 37.5753C46.2643 37.5726 46.1971 37.5847 46.1366 37.6116C46.0762 37.6384 46.0224 37.6801 45.9808 37.7312C45.8894 37.8602 45.8451 38.016 45.8558 38.1733C45.8464 38.3224 45.88 38.4702 45.9512 38.6019C45.9861 38.6516 46.0318 38.6906 46.0869 38.7161C46.1407 38.7417 46.2011 38.7538 46.2616 38.7484C46.3409 38.7484 46.4202 38.7296 46.4927 38.6973C46.5707 38.6637 46.6446 38.6194 46.7104 38.567ZM46.9778 38.9567H46.7104V38.79C46.6379 38.8532 46.5572 38.9056 46.4699 38.9446C46.3839 38.9822 46.2925 39.001 46.1985 38.9997C46.1111 39.0024 46.0238 38.9835 45.9458 38.9459C45.8666 38.9083 45.7994 38.8505 45.747 38.7806C45.626 38.6033 45.5669 38.3896 45.5803 38.1759C45.579 38.0537 45.5992 37.9327 45.6395 37.8172C45.6731 37.7191 45.7268 37.6277 45.7953 37.5484C45.8572 37.4785 45.9337 37.4234 46.0184 37.3858C46.1031 37.3482 46.1944 37.328 46.2885 37.328C46.3637 37.328 46.4376 37.3348 46.5102 37.3536C46.5801 37.3737 46.6486 37.4019 46.7131 37.4355V36.7435H46.9805V38.958L46.9778 38.9567ZM44.9111 38.5656V38.1209C44.8305 38.1249 44.7338 38.1329 44.6249 38.1424C44.5376 38.1491 44.4502 38.1625 44.3642 38.184C44.2957 38.2015 44.2312 38.2364 44.1788 38.2861C44.1318 38.3426 44.1062 38.4138 44.1076 38.4864C44.1103 38.5603 44.1385 38.6301 44.1896 38.6825C44.2621 38.7336 44.3508 38.7591 44.4395 38.7524C44.5282 38.7524 44.6155 38.7336 44.6961 38.6973C44.7727 38.661 44.844 38.6167 44.9098 38.5643L44.9111 38.5656ZM45.1799 38.9567H44.9125V38.786L44.8171 38.8532C44.7795 38.8801 44.7405 38.9029 44.6988 38.9231C44.6491 38.9459 44.5981 38.9647 44.5456 38.9782C44.4798 38.9943 44.4113 39.001 44.3441 39.001C44.2769 39.0023 44.2111 38.9903 44.1479 38.9661C44.0847 38.9419 44.0283 38.9056 43.9813 38.8586C43.9316 38.8115 43.8939 38.7564 43.8684 38.6933C43.8429 38.6315 43.8308 38.5643 43.8335 38.4958C43.8281 38.3923 43.855 38.2902 43.9101 38.2028C43.9651 38.1235 44.0417 38.0617 44.1304 38.0254C44.2406 37.9784 44.3589 37.9502 44.4771 37.9394C44.6128 37.9247 44.7566 37.9139 44.9111 37.9059V37.8642C44.9125 37.8118 44.9017 37.7594 44.8789 37.7123C44.8587 37.672 44.8265 37.6398 44.7875 37.6183C44.7459 37.5954 44.6988 37.5793 44.6518 37.5739C44.5188 37.5538 44.3831 37.5592 44.2527 37.5901C44.1613 37.6102 44.0726 37.6371 43.9853 37.672H43.9705V37.4006C44.0216 37.3872 44.0982 37.371 44.1963 37.3549C44.2917 37.3374 44.3898 37.3294 44.4879 37.3294C44.586 37.3294 44.6841 37.3374 44.7795 37.3563C44.8574 37.3724 44.93 37.4046 44.9945 37.4517C45.0536 37.4947 45.1006 37.5538 45.1302 37.621C45.1638 37.7029 45.1799 37.7903 45.1772 37.879L45.1799 38.9567ZM43.6211 38.9432C43.5674 38.958 43.5123 38.9688 43.4572 38.9768C43.4048 38.9849 43.3524 38.9889 43.2986 38.9889C43.2315 38.9929 43.1643 38.9849 43.1011 38.962C43.038 38.9392 42.9788 38.9043 42.9305 38.8586C42.8364 38.7403 42.7907 38.5898 42.8041 38.4393V37.5954H42.6268V37.371H42.8041V36.9142H43.0716V37.371H43.6211V37.5954H43.0716V38.3197C43.0716 38.403 43.0716 38.4689 43.0769 38.5159C43.081 38.5616 43.0944 38.6073 43.1172 38.6476C43.1361 38.6839 43.1656 38.7134 43.2019 38.7309C43.2556 38.7511 43.3121 38.7605 43.3685 38.7564C43.4142 38.7564 43.4599 38.7497 43.5042 38.7363C43.5392 38.7269 43.5728 38.7161 43.6064 38.704H43.6211V38.9446V38.9432ZM41.4967 38.9567H41.1406L40.5023 38.2633L40.3303 38.4272V38.9567H40.0629V36.7422H40.3303V38.1652L41.1016 37.371H41.4389L40.7012 38.1034L41.4967 38.9567ZM39.5241 38.9567H39.2567V37.3697H39.5241V38.9567ZM39.5415 37.1036H39.2405V36.8282H39.5415V37.1036ZM38.742 38.9567H38.4746V38.0523C38.4746 37.9865 38.4719 37.9206 38.4652 37.8548C38.4625 37.8024 38.4491 37.7513 38.4262 37.7029C38.4047 37.6626 38.3725 37.6304 38.3321 37.6102C38.2757 37.586 38.2152 37.5753 38.1548 37.5793C38.0768 37.5793 38.0002 37.5995 37.9317 37.6358C37.8524 37.6761 37.7772 37.7231 37.7073 37.7782C37.7073 37.7997 37.7127 37.8252 37.714 37.8534C37.7154 37.883 37.714 37.9126 37.714 37.9394V38.9553H37.4506V38.0523C37.4506 37.9824 37.448 37.9153 37.4412 37.8521C37.4372 37.7997 37.4251 37.7486 37.4023 37.7003C37.3821 37.6599 37.3485 37.629 37.3082 37.6089C37.2518 37.5847 37.1913 37.5739 37.1308 37.578C37.0542 37.578 36.979 37.5968 36.9118 37.6317C36.8339 37.6707 36.7613 37.7164 36.6928 37.7701V38.9553H36.4254V37.3697H36.6928V37.5471C36.7694 37.4826 36.8527 37.4288 36.9427 37.3858C37.026 37.3469 37.1161 37.3267 37.2074 37.3267C37.3028 37.324 37.3982 37.3469 37.4816 37.3939C37.5555 37.4382 37.6146 37.5041 37.6495 37.582C37.7396 37.5041 37.839 37.4382 37.9465 37.3858C38.0365 37.3455 38.1333 37.3254 38.2314 37.3267C38.3039 37.3213 38.3765 37.3321 38.4437 37.3589C38.5109 37.3858 38.57 37.4288 38.6184 37.4839C38.7084 37.6129 38.7514 37.7688 38.742 37.926L38.746 38.9553L38.742 38.9567ZM36.0464 38.4958C36.0464 38.5643 36.0317 38.6328 36.0007 38.6946C35.9698 38.7564 35.9241 38.8102 35.8691 38.8505C35.7253 38.9499 35.5533 38.9997 35.3786 38.9903C35.2697 38.9903 35.1609 38.9782 35.0561 38.9486C34.9714 38.9258 34.8895 38.8949 34.8102 38.8572V38.5576H34.8236C34.9096 38.6221 35.0037 38.6731 35.1045 38.7094C35.1985 38.747 35.2993 38.7672 35.4014 38.7685C35.4968 38.7726 35.5909 38.7524 35.6756 38.7094C35.7078 38.6919 35.7333 38.6664 35.7508 38.6342C35.7683 38.6019 35.7763 38.567 35.775 38.5307C35.7763 38.5052 35.7736 38.4783 35.7642 38.4541C35.7548 38.4299 35.7401 38.4071 35.7212 38.3896C35.6594 38.3466 35.5896 38.3184 35.5143 38.3076C35.4767 38.2982 35.427 38.2888 35.3665 38.2767C35.306 38.266 35.2482 38.2539 35.1999 38.2404C35.0857 38.2189 34.9822 38.1625 34.9029 38.0779C34.8438 38.0039 34.8129 37.9099 34.8156 37.8158C34.8156 37.7513 34.829 37.6882 34.8559 37.6304C34.8841 37.5699 34.9271 37.5175 34.9781 37.4759C35.0386 37.4275 35.1072 37.3925 35.1811 37.3697C35.2697 37.3428 35.3625 37.3307 35.4552 37.3307C35.5533 37.3307 35.65 37.3428 35.7441 37.3657C35.8274 37.3845 35.9094 37.4127 35.986 37.4503V37.7352H35.9672C35.8906 37.6814 35.8072 37.6371 35.7199 37.6075C35.6285 37.5739 35.5318 37.5565 35.4337 37.5565C35.3477 37.5538 35.263 37.5726 35.1864 37.6129C35.1555 37.629 35.13 37.6532 35.1112 37.6828C35.0937 37.7123 35.0843 37.7473 35.0857 37.7809C35.0843 37.8078 35.0883 37.836 35.0977 37.8615C35.1085 37.887 35.1246 37.9099 35.1448 37.9274C35.2026 37.9677 35.2671 37.9959 35.3369 38.008C35.3867 38.0187 35.4417 38.0295 35.5022 38.0416C35.5627 38.0537 35.6137 38.0631 35.6541 38.0725C35.7616 38.0926 35.861 38.1424 35.9403 38.2176C36.0088 38.2915 36.0464 38.3896 36.0451 38.4917L36.0464 38.4958ZM34.223 38.1639C34.2351 38.0026 34.1934 37.8427 34.1047 37.7083C34.0631 37.6613 34.0107 37.6237 33.9529 37.5981C33.8951 37.5726 33.8333 37.5592 33.7701 37.5592C33.707 37.5592 33.6438 37.5726 33.5874 37.5981C33.5296 37.6237 33.4785 37.6613 33.4355 37.7083C33.3576 37.8467 33.3159 38.0026 33.3159 38.1612C33.3159 38.3197 33.3576 38.4756 33.4355 38.614C33.4772 38.6624 33.5282 38.7 33.586 38.7269C33.6438 38.7538 33.707 38.7672 33.7701 38.7672C33.8333 38.7672 33.8964 38.7538 33.9542 38.7269C34.012 38.7 34.0631 38.6624 34.1047 38.614C34.1934 38.4823 34.2351 38.3238 34.2243 38.1639H34.223ZM34.4998 38.1639C34.5119 38.3856 34.4406 38.6033 34.3009 38.7766C34.231 38.8478 34.1477 38.9043 34.0563 38.9419C33.965 38.9809 33.8669 38.9997 33.7674 38.9997C33.668 38.9997 33.5699 38.9795 33.4785 38.9419C33.3871 38.9029 33.3038 38.8465 33.234 38.7766C33.105 38.5992 33.0351 38.3842 33.0351 38.1652C33.0351 37.9462 33.105 37.7312 33.234 37.5538C33.3038 37.4826 33.3858 37.4261 33.4785 37.3872C33.5699 37.3482 33.668 37.328 33.7674 37.328C33.8669 37.328 33.965 37.3482 34.0563 37.3872C34.1477 37.4261 34.231 37.4826 34.3009 37.5538C34.4406 37.7258 34.5119 37.9435 34.4984 38.1652L34.4998 38.1639ZM32.589 38.9567L31.7545 38.0147L31.5435 38.2391V38.9567H31.2613V36.8416H31.5435V37.9421L32.5702 36.8416H32.9115L31.9695 37.836L32.9558 38.9567H32.589Z" fill="#00258A"/>
<path fill-rule="evenodd" clip-rule="evenodd" d="M97.6291 38.954H97.3617V37.3697H97.6291V38.954ZM97.6466 37.1009H97.3443V36.8255H97.6466V37.1009ZM96.5716 38.5199V37.6573C96.5084 37.6277 96.4413 37.6049 96.3727 37.5874C96.3123 37.5739 96.2505 37.5672 96.1886 37.5672C96.1228 37.5645 96.0583 37.5753 95.9978 37.6008C95.9374 37.6264 95.8836 37.6653 95.8406 37.715C95.7492 37.8373 95.7035 37.9892 95.7143 38.1424C95.7049 38.2834 95.7371 38.4245 95.8084 38.5468C95.8446 38.5938 95.8917 38.6315 95.9468 38.6557C96.0019 38.6799 96.061 38.6893 96.1201 38.6839C96.2007 38.6839 96.2787 38.6691 96.3539 38.6395C96.4319 38.61 96.5044 38.571 96.5703 38.5199H96.5716ZM96.839 38.7739C96.8578 38.9876 96.792 39.2012 96.6549 39.3665C96.5783 39.435 96.4883 39.4861 96.3915 39.5184C96.2948 39.5506 96.1913 39.5627 96.0892 39.5546C96.0059 39.5546 95.9239 39.5493 95.8419 39.5358C95.7613 39.5251 95.6834 39.5076 95.6054 39.4861V39.2147H95.6202C95.6632 39.2308 95.7331 39.2523 95.8272 39.2765C95.9199 39.3007 96.0153 39.3128 96.112 39.3128C96.1886 39.3154 96.2652 39.3034 96.3391 39.2805C96.3929 39.263 96.4399 39.2321 96.4789 39.1905C96.5125 39.1529 96.538 39.1072 96.5501 39.0574C96.5649 39.001 96.5716 38.9432 96.5716 38.8841V38.7403C96.5004 38.7981 96.4225 38.8465 96.3391 38.8841C96.2491 38.919 96.1537 38.9352 96.0583 38.9311C95.9723 38.9352 95.8863 38.9177 95.8084 38.8814C95.7304 38.8465 95.6605 38.7927 95.6068 38.7255C95.4859 38.5576 95.4267 38.3533 95.4388 38.1477C95.4361 38.0268 95.4563 37.9058 95.4979 37.7916C95.5329 37.6976 95.5866 37.6102 95.6538 37.535C95.717 37.4678 95.7936 37.414 95.8782 37.3791C95.9616 37.3428 96.0502 37.324 96.1416 37.3227C96.2195 37.3213 96.2975 37.3307 96.3741 37.3495C96.4426 37.371 96.5084 37.3993 96.5716 37.4342L96.5877 37.3657H96.839V38.7739ZM95.0196 38.954H94.7522V37.3697H95.0196V38.954ZM95.037 37.1009H94.7347V36.8255H95.037V37.1009ZM94.2214 38.954H93.954V36.7408H94.2214V38.954ZM93.6288 38.9405C93.5751 38.9553 93.52 38.9661 93.4649 38.9741C93.4125 38.9822 93.36 38.9862 93.3076 38.9862C93.2404 38.9916 93.1733 38.9822 93.1101 38.9594C93.047 38.9365 92.9892 38.9016 92.9395 38.8545C92.844 38.7363 92.7984 38.5858 92.8131 38.4353V37.5914H92.6358V37.367H92.8131V36.9101H93.0832V37.367H93.6328V37.5914H93.0832V38.3157C93.0832 38.399 93.0832 38.4649 93.0886 38.5119C93.0926 38.5576 93.1061 38.6019 93.1289 38.6422C93.1477 38.6785 93.1773 38.7081 93.2149 38.7255C93.2687 38.7457 93.3251 38.7551 93.3815 38.7511C93.4272 38.7511 93.4729 38.743 93.5173 38.7309C93.5522 38.7215 93.5858 38.7108 93.6194 38.6987H93.6328L93.6301 38.9392L93.6288 38.9405ZM92.2944 38.954H92.027V38.051C92.027 37.9824 92.023 37.9139 92.0149 37.8454C92.0096 37.793 91.9935 37.7419 91.9679 37.6949C91.9451 37.6546 91.9088 37.6237 91.8658 37.6062C91.8107 37.5847 91.7516 37.5753 91.6924 37.5766C91.6132 37.5766 91.5352 37.5968 91.464 37.6304C91.382 37.668 91.3055 37.7137 91.2342 37.7688V38.954H90.9668V37.3684H91.2342V37.5457C91.3122 37.4799 91.3995 37.4261 91.4936 37.3845C91.5796 37.3455 91.6736 37.3254 91.7677 37.3254C91.8403 37.32 91.9142 37.3321 91.9814 37.3589C92.0499 37.3858 92.1104 37.4275 92.1601 37.4799C92.2582 37.6075 92.3065 37.7661 92.2958 37.926V38.9526L92.2944 38.954ZM90.3044 37.9865C90.3111 37.8696 90.2721 37.7527 90.1982 37.6626C90.1565 37.6223 90.1068 37.5914 90.0517 37.5713C89.9966 37.5511 89.9389 37.5444 89.8811 37.5484C89.8179 37.5457 89.7561 37.5551 89.697 37.5766C89.6379 37.5981 89.5841 37.6317 89.5384 37.6747C89.4538 37.758 89.4027 37.8696 89.3946 37.9878H90.3057L90.3044 37.9865ZM90.5624 38.1894H89.3933C89.392 38.2767 89.4067 38.3627 89.4376 38.4433C89.4632 38.5105 89.5035 38.5724 89.5559 38.6207C89.607 38.6678 89.6674 38.7014 89.7333 38.7229C89.8058 38.7457 89.8811 38.7578 89.9577 38.7564C90.0692 38.7564 90.1794 38.7336 90.2829 38.6919C90.3675 38.6624 90.4454 38.6194 90.5167 38.5643H90.5301V38.8559C90.4401 38.8935 90.3487 38.9258 90.2546 38.9513C90.1579 38.9768 90.0585 38.9903 89.9577 38.9903C89.8461 38.997 89.7346 38.9822 89.6285 38.9446C89.5223 38.9083 89.4255 38.8505 89.3422 38.7766C89.2656 38.696 89.2052 38.6019 89.1675 38.4971C89.1299 38.3923 89.1138 38.2821 89.1205 38.1706C89.1084 37.9462 89.185 37.7244 89.3328 37.5551C89.404 37.4799 89.4914 37.4194 89.5881 37.3804C89.6849 37.3415 89.7884 37.3227 89.8918 37.3267C89.9832 37.3213 90.0732 37.3348 90.1592 37.367C90.2439 37.3993 90.3218 37.449 90.3863 37.5135C90.5113 37.6626 90.5731 37.8534 90.561 38.0469V38.188L90.5624 38.1894Z" fill="#00258A"/>
<path d="M107.5 35.0262H18.2632V35.3554H107.5V35.0262Z" fill="#00258A"/>
</g>
<defs>
<clipPath id="clip0_89_2160">
<rect width="108" height="40" fill="white"/>
</clipPath>
</defs>
</svg>
