<svg width="105" height="60" viewBox="0 0 105 60" fill="none" xmlns="http://www.w3.org/2000/svg">
<path d="M21.2287 48.3053C18.0741 52.1622 15.362 58.4228 22.2434 58.4228H23.6433C34.5695 58.4228 56.7423 45.13 63.4578 40.3191C60.9493 40.202 59.484 41.5094 57.53 42.615C55.656 43.6756 53.9666 44.5817 52.0171 45.5068C48.1682 47.3334 44.2785 49.1557 40.0432 50.5599C29.3582 54.1024 20.3029 53.4995 28.4583 42.7052C29.0434 41.9308 29.9404 41.0371 30.3104 40.3246C29.0139 40.2646 28.502 40.993 27.7414 41.7536C24.9429 44.5525 25.0606 43.6198 21.2287 48.3053Z" fill="#0550B2"/>
<path d="M37.5177 29.1374C37.0134 30.8369 34.9294 37.1992 34.9268 38.4896L40.3232 38.4859L43.4045 27.2815C44.1138 28.0396 47.5569 34.9426 48.6368 36.9261C49.322 38.1846 50.0107 38.8003 51.8722 38.7802C54.8558 38.748 55.4971 35.9056 56.6525 33.8027C57.7308 31.8406 59.3276 29.1323 60.0339 27.117C60.1585 27.2849 60.1713 27.2702 60.3011 27.5844L60.88 29.808C61.1577 30.8619 61.3958 31.7356 61.6671 32.7474C62.0561 34.1987 62.7954 37.4273 63.3469 38.4896H68.802C68.8217 37.3725 66.7215 30.7305 66.2598 29.1169C65.5523 26.6431 64.5031 21.4486 62.9763 20.2569C61.5041 19.1079 59.4869 19.6548 58.5089 20.7319C57.3354 22.0243 52.535 31.4669 51.8738 32.2515C51.1425 31.0508 50.5086 29.6005 49.7629 28.3376C48.8922 26.8627 46.0808 21.5319 45.2947 20.672C44.2383 19.5166 42.222 19.2682 40.7817 20.2707C39.413 21.2233 38.1926 26.8625 37.5177 29.1374Z" fill="#0550B2"/>
<path d="M89.1998 38.5009C90.3829 38.3965 92.9293 34.8324 93.4576 33.7273C90.0174 33.7273 86.5768 33.7256 83.1367 33.7273C79.4453 33.7289 76.7317 33.7232 75.4581 30.8705C74.0613 27.7419 76.8777 25.1987 79.4297 24.8456C82.0959 24.4766 86.987 24.7699 89.8887 24.7658C90.9581 23.2574 92.5586 21.5672 93.5062 19.9202C89.1092 19.9202 79.9723 19.437 76.2858 20.5483C65.4472 23.8163 67.6807 38.0766 80.3337 38.4769C82.7286 38.5528 86.9261 38.7017 89.1998 38.5009Z" fill="#0550B2"/>
<path d="M10.0089 28.8993C13.6489 33.1393 23.9082 29.5626 27.8609 31.5032L27.8851 33.2238C26.0117 34.2654 15.0071 33.7273 11.9596 33.7273C11.4328 34.4889 10.7775 35.2268 10.1593 36.0719C9.71687 36.6767 8.69505 38.0987 8.40039 38.4365L26.4321 38.4568C35.6522 37.9775 34.011 30.3111 32.0445 28.7923C28.5868 26.122 17.985 28.0116 15.4378 27.2159C14.1361 26.8092 14.0852 25.0904 15.7148 24.8177C16.8081 24.6349 19.1571 24.7666 20.3777 24.7666C23.2177 24.7666 26.6068 24.9331 29.3797 24.7256L32.969 19.9467C28.5764 19.7668 23.8715 19.9212 19.4445 19.9202C15.2023 19.9192 10.6169 20.0031 9.31863 23.5642C8.63293 25.4452 8.93977 27.6541 10.0089 28.8993Z" fill="#0550B2"/>
<path d="M65.1992 11.5506C61.5562 13.6413 61.8435 13.9793 58.845 12.4133C59.1781 15.6152 57.6896 15.9753 55.7145 17.2357L55.6374 17.2848C54.6942 17.8865 51.5198 19.9108 50.8806 20.6548C55.5537 18.5813 58.5038 13.8226 61.5853 17.0639C61.2699 13.6139 62.2102 13.7412 64.6729 12.4256C70.1805 9.484 75.6986 6.74806 81.8427 4.86975C84.73 3.98688 93.4261 1.58152 94.6373 5.39782C95.779 8.99387 90.3889 14.4167 89.1279 16.1948C90.0183 15.7106 92.6284 12.6623 93.4333 11.5571C101.056 1.09262 93.9429 0.0770675 83.9189 3.21025C77.978 5.06744 70.548 8.48055 65.1992 11.5506Z" fill="#0550B2"/>
</svg>
