<svg width="24" height="24" viewBox="0 0 24 24" fill="none" xmlns="http://www.w3.org/2000/svg">
<g clip-path="url(#clip0_362_7936)">
<path d="M4.02856 3.2C4.02856 1.76406 5.19262 0.6 6.62856 0.6H15.2031L23.4 7.77226V20.8C23.4 22.2359 22.2359 23.4 20.8 23.4H6.62856C5.19262 23.4 4.02856 22.2359 4.02856 20.8V3.2Z" fill="white" stroke="#94C6FF" stroke-width="1.2"/>
<path d="M15.0857 0.599976V5.39998C15.0857 6.72546 16.1602 7.79998 17.4857 7.79998H23.3143" stroke="#94C6FF" stroke-width="1.2" stroke-linecap="round"/>
</g>
<rect y="11.1" width="17.1429" height="9.9" rx="1.6" fill="#E63946"/>
<path d="M2.34332 18.2318V13.8682H4.31086C4.6891 13.8682 5.01134 13.9314 5.27758 14.0578C5.54381 14.1828 5.74673 14.3568 5.88634 14.5798C6.02758 14.8014 6.09819 15.0571 6.09819 15.3469C6.09819 15.6366 6.02676 15.8923 5.88391 16.1139C5.74105 16.3355 5.53407 16.5081 5.26297 16.6317C4.99349 16.7552 4.66719 16.817 4.28407 16.817H3.03001V16.0777H4.11362C4.31654 16.0777 4.48375 16.0471 4.61524 15.9861C4.74836 15.9236 4.84738 15.8376 4.91232 15.7282C4.97887 15.6175 5.01215 15.4903 5.01215 15.3469C5.01215 15.202 4.97887 15.0756 4.91232 14.9676C4.84738 14.8582 4.74836 14.7737 4.61524 14.714C4.48212 14.653 4.31329 14.6224 4.10874 14.6224H3.39771V18.2318H2.34332Z" fill="white"/>
<path d="M8.41377 18.2318H6.64591V13.8682H8.42838C8.93 13.8682 9.36182 13.9555 9.72383 14.1302C10.0858 14.3035 10.3643 14.5528 10.5591 14.8781C10.7555 15.2034 10.8537 15.5926 10.8537 16.0457C10.8537 16.5003 10.7555 16.8909 10.5591 17.2176C10.3643 17.5443 10.0842 17.795 9.71896 17.9697C9.35533 18.1444 8.92026 18.2318 8.41377 18.2318ZM7.7003 17.4413H8.36994C8.68163 17.4413 8.9438 17.393 9.15646 17.2964C9.37075 17.1984 9.53146 17.0471 9.63861 16.8426C9.74737 16.6366 9.80176 16.371 9.80176 16.0457C9.80176 15.7233 9.74737 15.4598 9.63861 15.2552C9.53146 15.0507 9.37156 14.9001 9.1589 14.8035C8.94624 14.7069 8.68406 14.6586 8.37237 14.6586H7.7003V17.4413Z" fill="white"/>
<path d="M11.4976 18.2318V13.8682H14.7996V14.6288H12.552V15.6686H14.5804V16.4292H12.552V18.2318H11.4976Z" fill="white"/>
<defs>
<clipPath id="clip0_362_7936">
<rect width="20.5714" height="24" fill="white" transform="translate(3.42856)"/>
</clipPath>
</defs>
</svg>
