<svg width="32" height="32" viewBox="0 0 32 32" fill="none" xmlns="http://www.w3.org/2000/svg">
<path d="M6.66667 21.6667V21.6667C5.62087 21.6667 4.65061 21.0463 4.38693 20.0343C4.13441 19.0651 4 18.0482 4 17C4 10.3726 9.37258 5 16 5C22.6274 5 28 10.3726 28 17C28 18.0482 27.8656 19.0651 27.6131 20.0343C27.3494 21.0463 26.3791 21.6667 25.3333 21.6667V21.6667M22.6667 27V27C24.1394 27 25.3333 25.8061 25.3333 24.3333V19C25.3333 17.5272 24.1394 16.3333 22.6667 16.3333V16.3333C21.1939 16.3333 20 17.5272 20 19V24.3333C20 25.8061 21.1939 27 22.6667 27ZM9.33333 27V27C10.8061 27 12 25.8061 12 24.3333V19C12 17.5272 10.8061 16.3333 9.33333 16.3333V16.3333C7.86057 16.3333 6.66667 17.5272 6.66667 19V24.3333C6.66667 25.8061 7.86057 27 9.33333 27Z" stroke="#222432" stroke-width="1.5" stroke-linecap="round" stroke-linejoin="round"/>
</svg>
