<svg width="32" height="32" viewBox="0 0 32 32" fill="none" xmlns="http://www.w3.org/2000/svg">
<path d="M14.8095 12.4731V24.1213C14.8095 25.1639 13.9524 26 12.9048 26H11C9.9524 26 9.09524 25.1639 9.09524 24.1213V12.4731C9.09524 11.4398 9.9524 10.5944 11 10.5944H12.9048C13.9524 10.5944 14.8095 11.4398 14.8095 12.4731Z" fill="#459CFF"/>
<path d="M31 5.87873V24.1213C31 25.1639 30.1429 26 29.0952 26H27.1905C26.1429 26 25.2857 25.1639 25.2857 24.1213V5.87873C25.2857 4.84545 26.1429 4 27.1905 4H29.0952C30.1429 4 31 4.84545 31 5.87873Z" fill="#459CFF"/>
<path d="M6.71429 20.871V24.1213C6.71429 25.1639 5.85718 26 4.80952 26H2.90476C1.85717 26 1 25.1639 1 24.1213V20.871C1 19.8378 1.85717 18.9923 2.90476 18.9923H4.80952C5.85718 18.9923 6.71429 19.8378 6.71429 20.871Z" fill="#459CFF"/>
<path d="M22.9048 15.7421V24.1213C22.9048 25.1639 22.0477 26 21 26H19.0952C18.0476 26 17.1905 25.1639 17.1905 24.1213V15.7421C17.1905 14.7088 18.0476 13.8633 19.0952 13.8633H21C22.0477 13.8633 22.9048 14.7088 22.9048 15.7421Z" fill="#459CFF"/>
</svg>
